# xmcd CD database file
#
# Track frame offsets:
#	150
#	25205
#	39862
#	59812
#
# Disc length: 1187 seconds
#
# Revision: 2
# Processed by: cddbd v1.5.1PL0 Copyright (c) Steve Scherf et al.
# Submitted via: CDex 1.51
#
DISCID=2e04a104
DTITLE=Hue and Cry - Violently CD2
DYEAR=1989
DGENRE=Pop
TTITLE0=Violently (Rolling Gently Mix)
TTITLE1=The Man With The Child In His Eyes
TTITLE2=Looking For Linda (Gospel on the Track)
TTITLE3=Ordinary Angel (Hoedown Mix)
EXTD=YEAR: 1989
EXTT0=
EXTT1=
EXTT2=
EXTT3=
PLAYORDER=
